<?xml version="1.0" standalone="no"?><!DOCTYPE svg PUBLIC "-//W3C//DTD SVG 1.1//EN" "http://www.w3.org/Graphics/SVG/1.1/DTD/svg11.dtd"><svg t="1572491706529" class="icon" viewBox="0 0 1024 1024" version="1.1" xmlns="http://www.w3.org/2000/svg" p-id="2051" xmlns:xlink="http://www.w3.org/1999/xlink" width="200" height="200"><defs><style type="text/css"></style></defs><path d="M512 91.453793a247.172414 247.172414 0 0 1 246.113103 245.583448c0 10.24-5.296552 247.172414-246.113103 430.786207-240.64-183.26069-245.936552-420.369655-246.113103-430.433103A247.172414 247.172414 0 0 1 512 91.453793m0-70.62069a316.733793 316.733793 0 0 0-316.733793 316.557242s0 292.016552 295.194483 502.289655a37.075862 37.075862 0 0 0 42.902069 0c295.547586-210.273103 295.371034-502.289655 295.371034-502.289655A316.733793 316.733793 0 0 0 512 20.833103z" fill="#666666" p-id="2052"></path><path d="M512 1003.166897C326.091034 1003.166897 11.475862 971.034483 11.475862 854.510345c0-62.146207 84.744828-105.931034 251.762759-131.531035a35.310345 35.310345 0 0 1 10.416551 70.62069c-135.062069 19.597241-182.201379 49.611034-190.675862 61.086897 18.714483 29.131034 172.137931 77.85931 429.02069 77.85931s410.306207-48.904828 429.02069-77.85931c-8.474483-11.475862-55.613793-41.489655-190.852414-61.793104a35.310345 35.310345 0 1 1 10.416552-70.62069c167.017931 25.070345 251.762759 69.208276 251.762758 131.531035 0.176552 117.230345-314.438621 149.362759-500.347586 149.362759z m430.08-146.714483zM512 486.046897a157.484138 157.484138 0 1 1 157.484138-157.484138A157.66069 157.66069 0 0 1 512 486.046897z m0-244.171035a86.863448 86.863448 0 1 0 86.863448 86.863448A86.863448 86.863448 0 0 0 512 241.875862z" fill="#666666" p-id="2053"></path></svg>