<?xml version="1.0" standalone="no"?><!DOCTYPE svg PUBLIC "-//W3C//DTD SVG 1.1//EN" "http://www.w3.org/Graphics/SVG/1.1/DTD/svg11.dtd"><svg t="1572491737725" class="icon" viewBox="0 0 1303 1024" version="1.1" xmlns="http://www.w3.org/2000/svg" p-id="2788" xmlns:xlink="http://www.w3.org/1999/xlink" width="254.4921875" height="200"><defs><style type="text/css"></style></defs><path d="M1076.689455 0.744727h-851.781819C101.003636 0.744727 0 103.051636 0 228.817455V794.065455c0 125.765818 100.910545 228.072727 225.000727 228.072727h851.502546c124.090182 0 225.000727-102.306909 225.000727-228.072727V228.817455c0-125.765818-100.910545-228.072727-224.814545-228.072728z m17.873454 291.374546L808.215273 590.103273a215.226182 215.226182 0 0 1-156.392728 67.025454 215.412364 215.412364 0 0 1-156.392727-67.025454L207.034182 290.443636a51.851636 51.851636 0 0 1 0.930909-72.704 50.269091 50.269091 0 0 1 71.68 0.930909l288.581818 299.566546a115.246545 115.246545 0 0 0 167.098182 0.186182l286.440727-298.077091a50.269091 50.269091 0 0 1 71.866182-0.930909c20.200727 19.735273 20.48 52.317091 0.930909 72.610909z" fill="#999999" p-id="2789"></path></svg>