<?xml version="1.0" standalone="no"?><!DOCTYPE svg PUBLIC "-//W3C//DTD SVG 1.1//EN" "http://www.w3.org/Graphics/SVG/1.1/DTD/svg11.dtd"><svg t="1572400178652" class="icon" viewBox="0 0 1230 1024" version="1.1" xmlns="http://www.w3.org/2000/svg" p-id="1480" xmlns:xlink="http://www.w3.org/1999/xlink" width="240.234375" height="200"><defs><style type="text/css"></style></defs><path d="M1201.486322 1024h-114.245168a19.12053 19.12053 0 0 1 0-38.241061h123.66203a19.12053 19.12053 0 0 1 0 38.241061zM997.900476 1023.713192h-4.063113a19.12053 19.12053 0 0 1 0-38.241061h40.00971a19.12053 19.12053 0 0 1 0 38.241061zM905.835123 1023.665391c-214.627953 0-434.753058-3.202689-647.994772-6.309775l-124.283447-1.816451a19.12053 19.12053 0 1 1 0.525815-38.24106l124.283447 1.81645c224.666231 3.298291 456.885071 6.644384 682.172719 6.309775a19.12053 19.12053 0 0 1 0 38.241061zM82.9353 1015.156755h-0.573616c-16.395855-0.478013-37.046027-0.669219-63.145551-0.525815H19.12053a19.12053 19.12053 0 0 1 0-38.24106c26.529736 0 47.801326 0 64.483989 0.525814a19.12053 19.12053 0 0 1-0.573616 38.241061z" p-id="1481"></path><path d="M1056.887312 767.211278a32.791709 32.791709 0 1 1 32.79171-32.743908 32.743908 32.743908 0 0 1-32.79171 32.743908z m0-60.755485a28.011577 28.011577 0 1 0 28.011577 28.011577 28.011577 28.011577 0 0 0-28.011577-28.011577z" fill="#FF6903" p-id="1482"></path><path d="M202.438615 109.417235a22.944636 22.944636 0 1 1 22.944636-22.944637 22.992438 22.992438 0 0 1-22.944636 22.944637z m0-41.109141a18.164504 18.164504 0 1 0 18.164503 18.164504 18.164504 18.164504 0 0 0-18.164503-18.164504z" fill="#7AF4EB" p-id="1483"></path><path d="M1009.468397 29.015405l9.799272 19.83755 21.893007 3.202689-15.822239 15.487629 3.728504 21.797405-19.598544-10.277285-19.646345 10.277285 3.776305-21.797405-15.87004-15.487629 21.940808-3.202689 9.799272-19.83755zM170.363925 431.741574l-15.296424-8.030623-15.248623 8.030623 2.915881-17.017272-12.380544-12.045934 17.112875-2.485669 7.600411-15.487629L162.524508 400.192699l17.065073 2.485669L167.30464 414.724302z m-15.296424-13.432172l8.938848 4.780132-1.481841-10.038278 7.218-7.026795-9.942676-1.481841-4.493325-9.034451-4.445523 9.034451-9.990477 1.481841 7.218 7.026795-1.673046 9.942675z" fill="#FF6903" p-id="1484"></path><path d="M1116.447764 306.980114h-4.780133v-4.780133a4.780133 4.780133 0 1 0-9.560265 0v4.780133h-4.780132a4.780133 4.780133 0 0 0 0 9.560265h4.780132v4.780133a4.780133 4.780133 0 0 0 9.560265 0v-4.780133h4.780133a4.780133 4.780133 0 0 0 0-9.560265zM95.985062 547.611988l-13.049762 9.512463 4.971338 15.344226h16.156848l5.019139-15.344226-13.097563-9.512463z" fill="#7AF4EB" p-id="1485"></path><path d="M1176.486229 506.694053h-18.212305a5.688358 5.688358 0 0 0-1.242834 0.239006 3.96751 3.96751 0 0 0 1.09943-0.717019l13.001961-12.906358a4.302119 4.302119 0 0 0 0-6.070769l-2.007656-2.007655a4.302119 4.302119 0 0 0-6.070768 0l-12.858557 12.858556a8.699841 8.699841 0 0 0-0.71702 1.099431 4.206517 4.206517 0 0 0 0.286808-1.290636v-18.212305a4.302119 4.302119 0 0 0-4.302119-4.30212H1142.451685a4.302119 4.302119 0 0 0-4.302119 4.30212v18.212305a5.688358 5.688358 0 0 0 0 1.242834 3.96751 3.96751 0 0 0-0.71702-1.09943l-12.858557-12.858557a4.302119 4.302119 0 0 0-6.070768 0l-2.007656 2.007656a4.302119 4.302119 0 0 0 0 6.070768l12.858557 12.858557a8.699841 8.699841 0 0 0 1.09943 0.71702 4.206517 4.206517 0 0 0-1.290635-0.286808h-18.212305a4.302119 4.302119 0 0 0-4.30212 4.302119v2.820278a4.302119 4.302119 0 0 0 4.30212 4.30212h18.212305a5.688358 5.688358 0 0 0 1.242834 0 3.96751 3.96751 0 0 0-1.09943 0.71702l-12.858557 12.858556a4.302119 4.302119 0 0 0 0 6.070769l2.007656 2.007655a4.302119 4.302119 0 0 0 6.070768 0l12.858557-12.858556a5.210345 5.210345 0 0 0 0.669218-1.099431 6.11857 6.11857 0 0 0 0 1.290636V544.935113a4.302119 4.302119 0 0 0 4.30212 4.30212h2.820278a4.302119 4.302119 0 0 0 4.302119-4.30212v-18.212305a5.688358 5.688358 0 0 0 0-1.242834 3.96751 3.96751 0 0 0 0.71702 1.09943l12.858557 12.858557a4.302119 4.302119 0 0 0 6.070768 0l2.007656-2.007656a4.302119 4.302119 0 0 0 0-6.070768l-12.858557-12.858557a5.210345 5.210345 0 0 0-1.09943-0.669218 6.11857 6.11857 0 0 0 1.290635 0h18.212305a4.302119 4.302119 0 0 0 4.30212-4.30212v-2.820278a4.302119 4.302119 0 0 0-4.493325-4.015311z m-24.474279 11.806927l-2.007655 2.007656a2.724676 2.724676 0 1 1-4.780133 1.959854H1142.451685a4.206517 4.206517 0 0 0-3.728503 2.246663 4.254318 4.254318 0 0 0-1.003828-4.254318l-2.007656-2.007656a4.254318 4.254318 0 0 0-4.254318-1.051629 4.254318 4.254318 0 0 0 2.294464-3.728504v-2.820278a4.206517 4.206517 0 0 0-2.246662-3.728503 4.254318 4.254318 0 0 0 4.254318-1.003828l2.007655-2.007656a2.724676 2.724676 0 1 1 4.780133-1.959854h2.820278a4.206517 4.206517 0 0 0 3.728503-2.246662 4.254318 4.254318 0 0 0 1.003828 4.254318l2.007656 2.007655a4.254318 4.254318 0 0 0 4.254318 1.051629 4.254318 4.254318 0 0 0-2.294464 3.728504v2.820278a4.206517 4.206517 0 0 0 2.246663 3.728503 4.254318 4.254318 0 0 0-4.30212 1.003828zM195.364018 738.43488a3.202689 3.202689 0 0 0 3.202689-3.202689V726.580151a3.202689 3.202689 0 1 0-6.405378 0v8.604239a3.202689 3.202689 0 0 0 3.202689 3.25049z" fill="#EF3FE7" p-id="1486"></path><path d="M186.807581 740.107926a3.202689 3.202689 0 1 0 4.780133-4.780132l-6.070769-6.070769a3.25049 3.25049 0 0 0-4.541126 0 3.154887 3.154887 0 0 0 0 4.493325zM189.675661 744.075436A3.202689 3.202689 0 0 0 186.42517 740.920549h-8.604238a3.202689 3.202689 0 1 0 0 6.357576H186.42517a3.202689 3.202689 0 0 0 3.250491-3.202689zM191.205303 748.138549a3.25049 3.25049 0 0 0-4.780133 0l-6.070768 6.070769a3.202689 3.202689 0 0 0 4.780133 4.541125l6.070768-6.118569a3.154887 3.154887 0 0 0 0-4.493325zM195.316217 749.811596a3.202689 3.202689 0 0 0-3.202689 3.202688v8.604239a3.202689 3.202689 0 0 0 6.405378 0v-8.604239a3.202689 3.202689 0 0 0-3.202689-3.202688zM203.872654 748.18635a3.202689 3.202689 0 1 0-4.541126 4.493325l6.214173 6.070768a3.202689 3.202689 0 0 0 4.780132-4.493324zM212.811502 740.920549h-8.604238a3.202689 3.202689 0 1 0 0 6.405378h8.604238a3.202689 3.202689 0 0 0 0-6.405378zM199.37933 740.107926a3.154887 3.154887 0 0 0 4.541126 0l6.070768-6.070768a3.202689 3.202689 0 0 0-4.780133-4.493325l-6.070768 6.070769a3.154887 3.154887 0 0 0 0.239007 4.493324z" fill="#EF3FE7" p-id="1487"></path><path d="M91.157128 273.088974m-8.221828 0a8.221828 8.221828 0 1 0 16.443656 0 8.221828 8.221828 0 1 0-16.443656 0Z" fill="#EF3FE7" p-id="1488"></path><path d="M665.012044 440.345813m-417.496779 0a417.496779 417.496779 0 1 0 834.993558 0 417.496779 417.496779 0 1 0-834.993558 0Z" fill="#FFEA02" p-id="1489"></path><path d="M656.93362 23.566054a417.018766 417.018766 0 0 0-118.356083 17.065073c11.52012-0.956027 23.135842-1.481841 34.894968-1.481841a417.54458 417.54458 0 0 1 118.308281 817.976286 417.496779 417.496779 0 0 0-34.847166-833.559518z" fill="#F4C762" p-id="1490"></path><path d="M265.966576 220.937728a19.12053 19.12053 0 0 0 26.529736-5.114742 405.355242 405.355242 0 0 1 27.342359-35.850995 19.12053 19.12053 0 1 0-29.063207-24.856689 432.171786 432.171786 0 0 0-29.923629 39.29269 19.12053 19.12053 0 0 0 5.114741 26.529736z" fill="#020202" p-id="1491"></path><path d="M619.79199 0a436.330501 436.330501 0 0 0-288.146392 108.556811 19.12053 19.12053 0 1 0 25.2391 28.680795 398.376249 398.376249 0 1 1-135.468957 299.379703 393.882924 393.882924 0 0 1 43.929418-182.027448 19.12053 19.12053 0 0 0-34.034544-17.495285 432.123985 432.123985 0 0 0-48.135935 199.522733A436.617309 436.617309 0 1 0 619.79199 0z" fill="#020202" p-id="1492"></path><path d="M378.490897 259.704603a19.12053 19.12053 0 0 1-13.814583-32.361498 151.482401 151.482401 0 0 1 14.340398-13.049762 19.12053 19.12053 0 1 1 23.900663 29.828028 110.32546 110.32546 0 0 0-10.516292 9.560265 19.12053 19.12053 0 0 1-13.910186 6.022967z" fill="#FCFCFA" p-id="1493"></path><path d="M519.743815 350.288115m-49.283167 0a49.283167 49.283167 0 1 0 98.566334 0 49.283167 49.283167 0 1 0-98.566334 0Z" fill="#050505" p-id="1494"></path><path d="M434.083839 486.904304m-49.283167 0a49.283167 49.283167 0 1 0 98.566334 0 49.283167 49.283167 0 1 0-98.566334 0Z" fill="#F9C441" p-id="1495"></path><path d="M829.448604 486.904304m-49.283167 0a49.283167 49.283167 0 1 0 98.566334 0 49.283167 49.283167 0 1 0-98.566334 0Z" fill="#F9C441" p-id="1496"></path><path d="M747.708337 350.288115m-49.283167 0a49.283167 49.283167 0 1 0 98.566334 0 49.283167 49.283167 0 1 0-98.566334 0Z" fill="#050505" p-id="1497"></path><path d="M718.692932 531.407338c0 39.579498-39.197087 67.877883-87.572028 67.877883s-87.61983-28.298385-87.61983-67.877883 39.244888 4.780133 87.61983 4.780133 87.572029-44.407432 87.572028-4.780133z" fill="#050505" p-id="1498"></path><path d="M592.593035 578.587247a43.116796 11.998133 0 1 0 86.233592 0 43.116796 11.998133 0 1 0-86.233592 0Z" fill="#E95555" p-id="1499"></path><path d="M473.233125 287.046961a4.780133 4.780133 0 0 1-2.103259-0.525815 4.780133 4.780133 0 0 1-2.19886-6.405377 58.365419 58.365419 0 0 1 51.57763-32.4571 4.780133 4.780133 0 0 1 4.780133 4.780132 4.780133 4.780133 0 0 1-4.780133 4.780133 49.235366 49.235366 0 0 0-43.021193 27.151153 4.780133 4.780133 0 0 1-4.254318 2.676874z" fill="#050505" p-id="1500"></path><path d="M566.350107 286.807954a4.780133 4.780133 0 0 1-4.302119-2.676874 47.132107 47.132107 0 0 0-41.587153-26.912146 4.780133 4.780133 0 0 1 0-9.560265 56.740174 56.740174 0 0 1 50.095789 32.265895 4.780133 4.780133 0 0 1-2.15106 6.405377 4.780133 4.780133 0 0 1-2.055457 0.478013zM701.149846 287.046961a4.780133 4.780133 0 0 1-2.103258-0.525815 4.780133 4.780133 0 0 1-2.198861-6.405377 58.269816 58.269816 0 0 1 51.57763-32.4571 4.780133 4.780133 0 0 1 4.780133 4.780132 4.780133 4.780133 0 0 1-4.780133 4.780133 49.235366 49.235366 0 0 0-43.021193 27.151153 4.780133 4.780133 0 0 1-4.254318 2.676874z" fill="#050505" p-id="1501"></path><path d="M794.31463 286.807954a4.780133 4.780133 0 0 1-4.302119-2.676874 47.132107 47.132107 0 0 0-41.587154-26.912146 4.780133 4.780133 0 0 1-4.780132-4.780133 4.780133 4.780133 0 0 1 4.780132-4.780132 56.740174 56.740174 0 0 1 50.095789 32.265895 4.780133 4.780133 0 0 1-2.151059 6.405377 4.780133 4.780133 0 0 1-2.055457 0.478013z" fill="#050505" p-id="1502"></path><path d="M486.521893 330.832975m-10.707497 0a10.707497 10.707497 0 1 0 21.414994 0 10.707497 10.707497 0 1 0-21.414994 0Z" fill="#FCFCFA" opacity=".97" p-id="1503"></path><path d="M714.104005 330.832975m-10.707497 0a10.707497 10.707497 0 1 0 21.414994 0 10.707497 10.707497 0 1 0-21.414994 0Z" fill="#FCFCFA" opacity=".97" p-id="1504"></path></svg>