<?xml version="1.0" standalone="no"?><!DOCTYPE svg PUBLIC "-//W3C//DTD SVG 1.1//EN" "http://www.w3.org/Graphics/SVG/1.1/DTD/svg11.dtd"><svg t="1572484711707" class="icon" viewBox="0 0 1024 1024" version="1.1" xmlns="http://www.w3.org/2000/svg" p-id="10662" xmlns:xlink="http://www.w3.org/1999/xlink" width="200" height="200"><defs><style type="text/css"></style></defs><path d="M993.816267 481.841233a481.841233 481.841233 0 0 0-963.682466 0v90.376438a60.217671 60.217671 0 0 0 120.485274 0V481.841233a59.918081 59.918081 0 0 0-55.973473-59.918081 421.673493 421.673493 0 0 1 834.708796 0 59.918081 59.918081 0 0 0-55.973473 59.918081v90.376438a60.217671 60.217671 0 0 0 120.485274 0V481.841233z" fill="#707070" p-id="10663"></path><path d="M665.415253 775.589624a331.247123 331.247123 0 1 0-304.184124 1.398088 506.058124 506.058124 0 0 0-265.686756 199.726936 29.95904 29.95904 0 1 0 49.931734 33.604057 445.740589 445.740589 0 0 1 740.237956 0.249659 29.95904 29.95904 0 0 0 49.931734-33.604057 506.008192 506.008192 0 0 0-270.230544-201.374683z m-424.419739-293.648528a271.029452 271.029452 0 1 1 271.029452 271.029452 271.029452 271.029452 0 0 1-271.029452-271.029452z" fill="#707070" p-id="10664"></path></svg>