<?xml version="1.0" standalone="no"?><!DOCTYPE svg PUBLIC "-//W3C//DTD SVG 1.1//EN" "http://www.w3.org/Graphics/SVG/1.1/DTD/svg11.dtd"><svg t="1572484584456" class="icon" viewBox="0 0 1024 1024" version="1.1" xmlns="http://www.w3.org/2000/svg" p-id="6490" xmlns:xlink="http://www.w3.org/1999/xlink" width="200" height="200"><defs><style type="text/css"></style></defs><path d="M878.567 781.167L737.734 515.66c4.968-7.802 9.525-15.792 13.731-23.726l1.464-3.229c5.228-10.707 9.525-21.33 12.736-31.6l2.192-8.765h-0.027c7.771-26.296 11.685-52.11 11.685-76.858 0-150.17-119.327-272.332-266.033-272.332-146.706 0-266.006 122.162-266.006 272.332 0 49.964 13.353 98.728 38.686 141.285l-143.405 268.4c-5.054 9.452-4.12 21.022 2.337 29.498 6.427 8.414 17.765 12.328 27.817 9.64l111.555-29.8 41.432 116.463c3.506 9.993 12.564 17.006 23.141 17.823l1.928 0.059c9.76 0 18.758-5.433 23.374-14.14l136.305-255.064L646.95 910.71c4.734 8.764 13.674 14.14 23.434 14.14l2.045-0.059c10.43-0.817 19.46-7.83 22.963-17.823l41.404-116.463 111.586 29.8c2.221 0.586 4.47 0.878 6.719 0.878 8.327 0 16.013-3.8 21.095-10.518 6.491-8.476 7.396-20.103 2.371-29.498m-556.964-221.27c37.254 39.679 85.523 67.085 137.766 78.189l-103.55 193.791-29.512-83.083c-3.797-10.723-13.85-17.88-25.011-17.88-2.338 0-4.617 0.32-6.806 0.904l-75.472 20.191 102.585-192.111z m397.342-132.082c-1.842 6.91-4.06 13.732-6.808 21.153-2.542 6.823-5.405 13.412-8.532 19.869l-2.483 5.537c-15.077 29.862-46.663 78.423-101.797 105.012l-2.484 1.315c-6.808 2.54-12.74 4.381-17.59 5.463-14.815 3.216-30.943 3.476-50.461 3.476l-15.31-0.028c-117.341 0-212.769-97.823-212.769-218.13 0-120.278 95.428-218.145 212.77-218.145 117.31 0 212.768 97.867 212.768 218.145a220.613 220.613 0 0 1-7.304 56.333M662.29 599.867c0.468-0.352 2.953-2.308 6.955-5.755l3.243-0.408 0.993-3.274c7.306-6.514 17.357-16.07 28.371-28.197L802.393 752.01l-75.56-20.19c-13.118-3.566-27.26 4.09-31.816 16.975l-29.54 83.083-102.763-192.214c39.884-5.696 77.429-20.599 99.576-39.796M616.858 311.54h-64.49v151.424h36.291v-51.102h26.296c46.633-0.598 56.86-28.24 57.21-51.995-1.37-21.008-12.065-46.427-55.307-48.327m-28.199 31.993h23.435c19.545 0.453 22.702 9.336 23.141 17.328-0.205 9.175-3.1 18.597-22.938 18.991h-23.639v-36.319z m-86.573-31.993H464.54l-1.841 5.142c-18.759 53.235-28.927 82.396-34.537 98.524-6.895-18.903-18.874-51.876-35.793-98.582l-1.811-5.084h-38.95l59.606 151.454h33.34l57.53-146.195v146.195h35.647V311.54h-35.645z" fill="#8A8A8A" p-id="6491"></path></svg>