<?xml version="1.0" standalone="no"?><!DOCTYPE svg PUBLIC "-//W3C//DTD SVG 1.1//EN" "http://www.w3.org/Graphics/SVG/1.1/DTD/svg11.dtd"><svg t="1572487053863" class="icon" viewBox="0 0 1024 1024" version="1.1" xmlns="http://www.w3.org/2000/svg" p-id="9122" xmlns:xlink="http://www.w3.org/1999/xlink" width="200" height="200"><defs><style type="text/css"></style></defs><path d="M960.96 253.504s-266.304-2.816-313.088-83.648C601.216 89.088 423.36 41.6 423.36 41.6L301.568 9.152 37.376 998.4l61.824 16.512 129.472-484.8c84.352-2.752 194.88 48.448 236.8 120.96 69.248 97.28 223.616 124.032 223.616 124.032C889.152 668.032 960 373.312 979.328 316.352c23.808-68.352-18.368-62.848-18.368-62.848z m-288.704 435.84S556.224 652.544 513.344 572.8c-46.72-69.12-178.368-130.368-260.096-129.6L341.952 111.04s229.312 59.2 274.752 141.696c53.44 74.304 275.008 81.728 275.008 81.728s-62.592 256.512-219.456 354.88z" p-id="9123" fill="#8a8a8a"></path></svg>